<?xml version="1.0" encoding="utf-8"?>
<!-- Generator: Adobe Illustrator 19.2.1, SVG Export Plug-In . SVG Version: 6.00 Build 0)  -->
<svg version="1.1" id="Layer_1" xmlns="http://www.w3.org/2000/svg" xmlns:xlink="http://www.w3.org/1999/xlink" x="0px" y="0px"
	 viewBox="0 0 44.4 61" style="enable-background:new 0 0 44.4 61;" xml:space="preserve">
<style type="text/css">
	.st0{fill:#EDEDED;}
	.st1{fill:#DDDDDD;}
	.st2{fill:#BABABA;}
	.st3{fill:#AEADAE;}
	.st4{fill:#EA9919;}
</style>
<g id="left-arm">
	<g>
		<path class="st0" d="M3,0c18.4,4.8,31.7,20.1,33.8,38.3c-2.6,0.5-5.1,1.1-7.7,1.6C24.7,27,13,18.2,0,17.7C1,11.8,2,5.9,3,0z"/>
	</g>
	<g>
		<path class="st1" d="M25.8,26.7C22.8,22,19,17.7,14,15.2C10.3,13.2,5.8,10.2,1.5,9c-0.5,2.9-1,5.8-1.5,8.8
			C13,18.2,24.7,27,29.1,40c0.8-0.2,1.6-0.3,2.4-0.5C30.1,35,28.3,30.6,25.8,26.7z"/>
	</g>
	<path class="st2" d="M23.8,34.9l3.1,9.9l-1.8,2.8l-2,3.2c-0.6,0.9-0.6,3.1,1,2.9c0.8-0.1,2.8-1.9,4.4-3.6l0.3,3.1l0.5,4.7
		c0.1,1.3,1.1,2.3,2.2,2.2l0,0c1.1-0.1,1.8-1.3,1.7-2.6l-0.6-5.7l1.8,7.3c0.3,1.3,1.4,2.1,2.4,1.9l0,0c1-0.2,1.6-1.5,1.3-2.8
		l-1.4-5.9l1.8,3.7c0.6,1.2,1.8,1.8,2.8,1.4l0,0c1-0.5,1.3-1.8,0.7-3l-2.7-5.7l2.3,1.9c0.7,0.6,1.8,0.5,2.4-0.2l0,0
		c0.6-0.7,0.5-1.8-0.2-2.4l-5.2-4.3c-0.1-0.1-0.2-0.1-0.3-0.2L39,32.9L23.8,34.9z"/>
	<path class="st3" d="M43.8,47.8l-5.2-4.3c-0.1-0.1-0.2-0.1-0.3-0.2L39,32.9l-2.2,0.3c-0.1,13.8-6.7,20.5-7.8,23.3l0.1,1.4
		c0.1,1.3,1.1,2.3,2.2,2.2l0,0c1.1-0.1,1.8-1.3,1.7-2.6l-0.6-5.7l1.8,7.3c0.3,1.3,1.4,2.1,2.4,1.9l0,0c1-0.2,1.6-1.5,1.3-2.8
		l-1.4-5.9l1.8,3.7c0.6,1.2,1.8,1.8,2.8,1.4l0,0c1-0.5,1.3-1.8,0.7-3l-2.7-5.7l2.3,1.9c0.7,0.6,1.8,0.5,2.4-0.2l0,0
		C44.6,49.5,44.5,48.4,43.8,47.8z"/>
	<g>
		<path class="st4" d="M20.1,7.9c-0.1,5.5-2.1,10.6-5.9,14.6c-0.6-0.4-1.2-0.8-1.8-1.2c3.5-3.8,5.4-8.6,5.4-13.8
			C18.6,7.6,19.3,7.8,20.1,7.9z"/>
	</g>
	<g>
		<path class="st4" d="M24.4,9.6c-0.1,5.5-2.1,10.6-5.9,14.6c-0.6-0.4-1.2-0.8-1.8-1.2c3.5-3.8,5.4-8.6,5.4-13.8
			C22.9,9.4,23.7,9.5,24.4,9.6z"/>
	</g>
</g>
<g id="Layer_1_1_">
</g>
</svg>
