<?xml version="1.0" encoding="utf-8"?>
<!-- Generator: Adobe Illustrator 19.2.1, SVG Export Plug-In . SVG Version: 6.00 Build 0)  -->
<svg version="1.1" id="Layer_1" xmlns="http://www.w3.org/2000/svg" xmlns:xlink="http://www.w3.org/1999/xlink" x="0px" y="0px"
	 viewBox="0 0 96.6 80.3" style="enable-background:new 0 0 96.6 80.3;" xml:space="preserve">
<style type="text/css">
	.st0{fill:#EDEDED;}
	.st1{fill:#DDDDDD;}
	.st2{fill:#BABABA;}
	.st3{fill:#AEADAE;}
	.st4{fill:#EA9919;}
</style>
<g id="legs">
	<g>
		<path class="st0" d="M54.1,0c3.5,14.9,12.4,28.1,25.3,37.2c-1.6,3.1-3.2,6.2-4.8,9.2c-18-7-33-20.5-42.1-38.1
			C39.7,5.6,46.9,2.8,54.1,0z"/>
	</g>
	<g>
		<path class="st1" d="M70.2,33.7c1.9,1.5,7.2,2.2,9.2,3.5c0,0,0,0,0,0C66.5,28.1,57.5,14.9,54.1,0c-3.2,1.3-6.5,2.5-9.7,3.8
			C52.8,14.7,59.1,25.4,70.2,33.7z"/>
	</g>
	<g>
		<path class="st0" d="M24.6,7.5c-6.9,13.6-8.5,29.5-4.5,44.8c-3.2,1.3-6.4,2.7-9.6,4C1.2,39.3-1.7,19.3,2.7,0
			C10,2.5,17.3,5,24.6,7.5z"/>
	</g>
	<g>
		<path class="st1" d="M14.3,4c-2.5,7.7-0.8,18.1,0.1,25.4c0.9,7.9,2.6,15.6,4.7,23.2c0.3-0.1,0.7-0.3,1-0.4
			c-4-15.2-2.4-31.2,4.5-44.8C21.2,6.3,17.7,5.1,14.3,4z"/>
	</g>
	<path class="st2" d="M4.5,80.3c8.8-3.9,20.4-9.1,20.4-9.1L24.7,68l1.6,2.6l6-2.7l-12-26.5L3.3,49l11.5,14.4
		C14.7,63.4,2.1,72.6,4.5,80.3z"/>
	<path class="st3" d="M26.7,70.4l5.6-2.5l-12-26.5l-5,2.2C19.8,47.3,27.5,57.5,26.7,70.4z"/>
	<path class="st2" d="M82.5,69.4c4.5-8.6,10.4-19.7,10.4-19.7l-2.2-2.4l2.9,1.1l3-5.8L70.8,29.1l-8.7,16.4L80,49.8
		C80,49.8,75.8,64.9,82.5,69.4z"/>
	<path class="st3" d="M90.3,54.6c1.5-2.9,2.6-4.9,2.6-4.9l-2.2-2.4l2.9,1.1l3-5.8L70.8,29.1l-1.9,3.7C81.9,39.2,86.8,45.5,90.3,54.6
		z"/>
	<g>
		<path class="st4" d="M20.8,23.5C14,25.5,6.8,25.4,0,23.4c0.2-0.7,0.4-1.4,0.6-2.1c6.4,1.8,13.2,1.8,19.6-0.1
			C20.4,22,20.6,22.8,20.8,23.5z"/>
	</g>
	<g>
		<path class="st4" d="M20.8,28.2C14,30.1,6.8,30.1,0,28.1c0.2-0.7,0.4-1.4,0.6-2.1C7,27.9,13.8,27.8,20.2,26
			C20.4,26.7,20.6,27.5,20.8,28.2z"/>
	</g>
	<g>
		<path class="st4" d="M63.2,16.9c-5,5-11.4,8.4-18.3,9.9c-0.2-0.7-0.3-1.4-0.5-2.1c6.5-1.5,12.4-4.8,17.1-9.5
			C62.1,15.8,62.7,16.4,63.2,16.9z"/>
	</g>
	<g>
		<path class="st4" d="M65.5,21c-5,5-11.4,8.4-18.3,9.9c-0.2-0.7-0.3-1.4-0.5-2.1c6.5-1.5,12.4-4.8,17.1-9.5
			C64.4,19.9,64.9,20.5,65.5,21z"/>
	</g>
</g>
<g id="Layer_1_1_">
</g>
</svg>
