<?xml version="1.0" encoding="utf-8"?>
<!-- Generator: Adobe Illustrator 19.2.1, SVG Export Plug-In . SVG Version: 6.00 Build 0)  -->
<svg version="1.1" id="Layer_1" xmlns="http://www.w3.org/2000/svg" xmlns:xlink="http://www.w3.org/1999/xlink" x="0px" y="0px"
	 viewBox="0 0 47.2 58.1" style="enable-background:new 0 0 47.2 58.1;" xml:space="preserve">
<style type="text/css">
	.st0{fill:#EDEDED;}
	.st1{fill:#DDDDDD;}
	.st2{fill:#BABABA;}
	.st3{fill:#AEADAE;}
	.st4{fill:#EA9919;}
</style>
<g id="right-arm">
	<g>
		<path class="st0" d="M43.6,58.1c-18.2-5.5-31-21.2-32.5-39.4c2.6-0.5,5.2-0.9,7.8-1.4c4,13.1,15.4,22.2,28.4,23.2
			C46,46.4,44.8,52.2,43.6,58.1z"/>
	</g>
	<g>
		<path class="st1" d="M13.3,29.4C18,42.9,29.1,53.8,43.6,58.1c0.6-2.8,1.1-5.6,1.7-8.4C32.5,47.1,21.6,39.4,13.3,29.4z"/>
	</g>
	<path class="st2" d="M27.4,26.5l-6.3-10.3l1.2-3.7l1.4-4.2c0.4-1.2-0.2-3.6-1.9-3c-0.9,0.3-2.6,2.9-4,5.3l-1.2-3.5L14.8,2
		c-0.5-1.5-1.9-2.3-3.1-1.9l0,0c-1.2,0.4-1.7,1.9-1.2,3.4l2.2,6.3l-4-7.7C8,0.7,6.5,0,5.4,0.6l0,0C4.3,1.2,4,2.8,4.7,4.2l3.3,6.3
		l-3-3.7C3.9,5.6,2.4,5.2,1.4,6l0,0c-1,0.8-1,2.4,0,3.6L6,15.3l-3.1-1.5c-1-0.5-2.2-0.1-2.7,0.9l0,0c-0.5,1-0.1,2.2,0.9,2.7l7,3.4
		c0.1,0.1,0.2,0.1,0.3,0.1L10.7,33L27.4,26.5z"/>
	<path class="st3" d="M0.2,14.7C0.2,14.7,0.2,14.7,0.2,14.7L0.2,14.7c-0.5,1.1-0.1,2.2,0.9,2.7l7,3.4c0.1,0.1,0.2,0.1,0.3,0.1
		L10.7,33l13.7-5.3C17.1,26.4,7.5,14.2,0.2,14.7z"/>
	<g>
		<path class="st4" d="M25.1,48.3c0.9-5.4,3.6-10.2,7.9-13.6c0.5,0.5,1,0.9,1.6,1.4c-4,3.3-6.5,7.8-7.3,12.9
			C26.6,48.7,25.9,48.5,25.1,48.3z"/>
	</g>
	<g>
		<path class="st4" d="M21.1,45.9c0.9-5.4,3.6-10.2,7.9-13.6c0.5,0.5,1,0.9,1.6,1.4c-4,3.3-6.5,7.8-7.3,12.9
			C22.5,46.4,21.8,46.2,21.1,45.9z"/>
	</g>
</g>
<g id="Layer_1_1_">
</g>
</svg>
