<?xml version="1.0" encoding="utf-8"?>
<!-- Generator: Adobe Illustrator 19.2.1, SVG Export Plug-In . SVG Version: 6.00 Build 0)  -->
<svg version="1.1" id="Layer_1" xmlns="http://www.w3.org/2000/svg" xmlns:xlink="http://www.w3.org/1999/xlink" x="0px" y="0px"
	 viewBox="0 0 60.7 87.3" style="enable-background:new 0 0 60.7 87.3;" xml:space="preserve">
<style type="text/css">
	.st0{fill:#EDEDED;}
	.st1{fill:#DDDDDD;}
	.st2{fill:#EA9919;}
	.st3{fill:#BABABA;}
	.st4{fill:#AEADAE;}
	.st5{fill:#E15F41;}
	.st6{fill:#D1543F;}
	.st7{fill:#42B86A;}
</style>
<g id="torso">
	<g>
		<path class="st0" d="M44,31.1c3.3-6.4,2.3-14.5-3.1-19.9c-6.6-6.6-17.4-6.6-24.1,0c-5.4,5.4-6.4,13.5-3.1,19.9
			C23.8,31.1,33.9,31.1,44,31.1z"/>
	</g>
	<g>
		<path class="st1" d="M41.2,11.5C40.9,32.1,19.3,29.4,17,31.1h27C47.2,24.8,46.3,16.9,41.2,11.5z"/>
	</g>
	<polygon class="st0" points="3,58.7 0,75.3 26.8,87.3 51.8,77.3 51.8,60 	"/>
	<polygon class="st1" points="15.3,82.1 26.8,87.3 51.8,77.3 51.8,60 28.5,80.3 	"/>
	<rect x="14" y="32.8" class="st2" width="29.1" height="1.7"/>
	<rect x="37.5" y="3.8" transform="matrix(0.5004 -0.8658 0.8658 0.5004 12.7911 36.87)" class="st3" width="1.7" height="7.1"/>
	<rect x="14" y="35.6" class="st2" width="29.1" height="1.7"/>
	<ellipse class="st3" cx="26" cy="20.4" rx="9.6" ry="3.4"/>
	<path class="st4" d="M35.5,20.5v-0.1c0-1.9-4.3-3.4-9.6-3.4c-4.2,0-7.8,1-9.1,2.3C23.1,18.2,29.5,18.6,35.5,20.5z"/>
	<g>
		<path class="st5" d="M40.9,7.5C43,5.1,45.8,4,48.4,4c2.2,0,4.3,0.8,5.8,2.2s2.5,3.4,2.5,6.3c0,0.2,0,0.3,0,0.5l0,0
			c-0.1,1.7-0.6,3.4-1.6,5.2c-1.4,2.7-3.6,5.4-5.5,8.3c-0.9,1.4-1.8,2.9-2.5,4.5c-0.7,1.6-1.1,3.2-1.1,5c0,0.2,0,0.5,0,0.7l4-0.3
			c0-0.1,0-0.3,0-0.4c0-1.4,0.5-2.9,1.4-4.6c1.3-2.5,3.5-5.3,5.4-8.2c1-1.5,1.9-3,2.6-4.7c0.7-1.6,1.2-3.4,1.3-5.3l0,0
			c0-0.2,0-0.4,0-0.6c0-3.9-1.5-7.1-3.8-9.2C54.6,1.1,51.5,0,48.4,0c-3.8,0-7.7,1.6-10.5,4.9L40.9,7.5L40.9,7.5z"/>
	</g>
	<g>
		<path class="st6" d="M54.4,23.7c3-3.7,5.7-7.3,4-12.4c-1-3-2.5-7.7-6.2-8.4C47.9,2,42.6,3.1,38.9,5.8l2,1.7C43,5.1,45.8,4,48.4,4
			c2.2,0,4.3,0.8,5.8,2.2s2.5,3.4,2.5,6.3c0,0.2,0,0.3,0,0.5l0,0c-0.1,1.7-0.6,3.4-1.6,5.2c-1.4,2.7-3.6,5.4-5.5,8.3
			c-0.9,1.4-1.8,2.9-2.5,4.5c-0.7,1.6-1.1,3.2-1.1,5c0,0.2,0,0.5,0,0.7l3.4-0.3C49.9,31.8,51.4,27.3,54.4,23.7z"/>
	</g>
	<path class="st0" d="M8,38.3c0,0-5.7,17.1-4.1,17.5s46.7,2.9,46.7,2.9l2.7-18.6L8,38.3z"/>
	<path class="st1" d="M4,55.8c1.6,0.4,46.7,2.9,46.7,2.9l1-10.6C51.6,48.1,2.3,55.4,4,55.8z"/>
	<circle class="st5" cx="13.5" cy="47" r="1.1"/>
	<circle class="st7" cx="16.4" cy="47" r="1.1"/>
	<circle class="st7" cx="41.4" cy="48" r="1.1"/>
	<circle class="st5" cx="44.3" cy="48" r="1.1"/>
	<path class="st0" d="M27.6,48.6l0.8,0.1l-1.3-2.9l2.5,3.1l-0.7-0.1l1.3,2.9L27.6,48.6z"/>
</g>
<g id="Layer_1_1_">
</g>
</svg>
